<svg xmlns="http://www.w3.org/2000/svg" width="36" height="32" viewBox="0 0 36 32">
  <defs>
    <style>
      .cls-1 {
        fill: #fff;
        fill-rule: evenodd;
      }
    </style>
  </defs>
  <path id="Basket" class="cls-1" d="M1729,88h-5.1a1.082,1.082,0,0,0-.13-0.294l-5-8A1.484,1.484,0,0,0,1717.5,79a1.5,1.5,0,0,0-1.5,1.5,1.442,1.442,0,0,0,.23.794L1720.42,88h-12.84l4.19-6.706A1.442,1.442,0,0,0,1712,80.5a1.5,1.5,0,0,0-1.5-1.5,1.484,1.484,0,0,0-1.27.706l-5,8a1.082,1.082,0,0,0-.13.294H1699a3,3,0,0,0-3,3v2a3,3,0,0,0,2.32,2.915l3.8,12.934A3.01,3.01,0,0,0,1705,111h18a3.01,3.01,0,0,0,2.88-2.152l3.8-12.934A3,3,0,0,0,1732,93V91A3,3,0,0,0,1729,88Zm-30,3h30v2h-30V91Zm24,17-18,0-3.53-12h25.06Z" transform="translate(-1696 -79)"/>
</svg>
